<svg xmlns="http://www.w3.org/2000/svg" width="328" height="232">
  <g fill="none" fill-rule="evenodd">
    <path stroke="#DADCE0" stroke-width="3.211" d="M253.065 227.197H3m160.298 0H92.767c-4.87 0-8.817-3.954-8.817-8.831v-70.653c0-4.877 3.948-8.831 8.817-8.831h70.53c4.87 0 8.817 3.954 8.817 8.831v70.653c0 4.877-3.947 8.831-8.816 8.831z"/>
    <path fill="#4285F4" d="M112.433 157.231c4.248-.724 8.77.383 12.175 3.037 3.43 2.621 5.697 6.714 6.064 11.027.417 4.294-1.038 8.727-3.93 11.927-3.032 3.433-7.62 5.411-12.195 5.229-4.553-.11-8.981-2.352-11.796-5.934-2.974-3.7-4.092-8.79-2.98-13.402 1.346-6.028 6.569-10.936 12.662-11.884"/>
    <path fill="#34A853" d="M151.643 167.589c2.277-.819 4.946.987 5.052 3.397.24 2.19-1.693 4.278-3.888 4.19-2.188.062-4.098-2.03-3.849-4.206.097-1.54 1.223-2.923 2.685-3.381"/>
    <path fill="#EA4335" d="M139.011 172.848c2.218-.624 4.711-.218 6.582 1.14 2.156 1.5 3.434 4.16 3.258 6.788-.116 2.449-1.494 4.778-3.553 6.093-2.864 1.887-6.955 1.543-9.436-.834-2.145-1.94-3.031-5.135-2.181-7.903.713-2.527 2.804-4.59 5.33-5.284"/>
    <path fill="#FBBC05" d="M139.348 191.075c4.877-1.123 10.13 2.57 10.737 7.542.88 4.902-2.994 9.961-7.949 10.37-4.746.667-9.51-3.088-9.992-7.86-.697-4.572 2.665-9.247 7.204-10.052"/>
    <path fill="#FFF" d="M11.915 36.083l37.161-9.974 9.958 37.224-37.161 9.975z"/>
    <path fill="#E74133" d="M50.21 24.143L9.952 34.948l10.787 40.327 40.258-10.806L50.21 24.143zm-2.267 3.933l9.127 34.123-34.064 9.143-9.127-34.123 34.064-9.143z"/>
    <path fill="#E74133" d="M51.98 36.967l-37.16 9.974-2.904-10.858 37.16-9.974zM33.208 53.642l-6.194 1.662-1.659-6.204 6.193-1.662z"/>
    <path fill="#E74133" d="M15.316 30.184l-3.096.831 1.659 6.204 3.096-.831zM21.509 28.522l-3.096.831 1.659 6.204 3.097-.832zM27.703 26.859l-3.097.831 1.66 6.205 3.096-.831zM33.896 25.197l-3.097.831 1.66 6.204 3.097-.831zM40.09 23.534l-3.097.831 1.659 6.205 3.097-.831z"/>
    <path fill="#EA4335" d="M46.284 21.872l-3.097.831 1.659 6.205 3.097-.832z"/>
    <path stroke="#DADCE0" stroke-width="3.211" d="M285.926 84.287h-96.18c-22.131 0-40.074-17.973-40.074-40.144C149.672 21.973 167.615 4 189.747 4h96.179C308.058 4 326 21.973 326 44.143s-17.942 40.144-40.074 40.144z"/>
    <path fill="#DADCE0" d="M192.953 101.95V84.287H218.6l-24.365 18.305a.801.801 0 0 1-1.282-.642"/>
    <path stroke="#DADCE0" stroke-width="3.211" d="M181.732 34.509H293.94"/>
    <path stroke="#34A853" stroke-width="3.211" d="M181.732 34.509h58.509"/>
    <path stroke="#FBBC05" stroke-width="3.211" d="M181.732 53.778H293.94"/>
    <path stroke="#EA4335" stroke-width="3.211" d="M181.732 53.778h78.546"/>
    <path stroke="#4285F4" stroke-width="3.211" d="M181.732 53.778h39.273"/>
    <path fill="#4285F4" d="M95.77 106.34a4.015 4.015 0 0 1-2.833 4.917 4.015 4.015 0 0 1-2.075-7.756 4.008 4.008 0 0 1 4.909 2.84"/>
    <path stroke="#4285F4" stroke-width="3.211" d="M95.77 106.34a4.015 4.015 0 0 1-2.833 4.917 4.015 4.015 0 0 1-2.075-7.756 4.008 4.008 0 0 1 4.909 2.84zm0 0L89.34 82.3"/>
    <path fill="#4285F4" d="M115.125 101.145a4.016 4.016 0 0 1-2.834 4.917 4.006 4.006 0 0 1-4.907-2.839 4.007 4.007 0 1 1 7.742-2.078"/>
    <path stroke="#4285F4" stroke-width="3.211" d="M115.125 101.145a4.016 4.016 0 0 1-2.834 4.917 4.006 4.006 0 0 1-4.907-2.839 4.007 4.007 0 1 1 7.742-2.078zm0 0l-6.43-24.04"/>
    <path fill="#4285F4" d="M89.34 82.3l1.245 4.653 20.515-5.507a4.819 4.819 0 0 0 3.401-5.9L89.341 82.3z"/>
    <path stroke="#4285F4" stroke-width="3.211" d="M89.34 82.3l1.245 4.653 20.515-5.507a4.819 4.819 0 0 0 3.401-5.9L89.341 82.3z"/>
    <path stroke="#34A853" stroke-width="3.211" d="M47.648 127c4.78 8.294 1.943 18.9-6.337 23.689-8.28 4.789-18.868 1.947-23.648-6.348-4.781-8.294-1.944-18.9 6.336-23.689 8.28-4.79 18.868-1.948 23.649 6.347z"/>
    <path stroke="#34A853" stroke-width="3.211" d="M36.441 129.281l-3.071 11.483-5.223-1.402"/>
    <path fill="#F1F3F4" d="M50.288 102.81l-5.667-5.677 5.667-5.678 5.667 5.678zM209.784 144.559l-5.667-5.677 5.667-5.678 5.667 5.678zM86.355 31.297a2.406 2.406 0 0 1-2.405 2.41 2.406 2.406 0 0 1-2.404-2.41 2.406 2.406 0 0 1 2.404-2.408 2.406 2.406 0 0 1 2.405 2.408m68.928 67.441a2.406 2.406 0 0 1-2.405 2.409 2.406 2.406 0 0 1-2.404-2.409 2.406 2.406 0 0 1 2.404-2.408 2.406 2.406 0 0 1 2.405 2.408"/>
  </g>
</svg>
