<?xml version="1.0" encoding="UTF-8" standalone="no"?>
<!-- Created with Inkscape (http://www.inkscape.org/) -->

<svg
   xmlns:dc="http://purl.org/dc/elements/1.1/"
   xmlns:cc="http://creativecommons.org/ns#"
   xmlns:rdf="http://www.w3.org/1999/02/22-rdf-syntax-ns#"
   xmlns:svg="http://www.w3.org/2000/svg"
   xmlns="http://www.w3.org/2000/svg"
   xmlns:sodipodi="http://sodipodi.sourceforge.net/DTD/sodipodi-0.dtd"
   xmlns:inkscape="http://www.inkscape.org/namespaces/inkscape"
   id="svg2"
   version="1.1"
   inkscape:version="0.91 r13725"
   xml:space="preserve"
   width="272mm"
   height="92mm"
   viewBox="0 0 963.77956 325.98425"
   sodipodi:docname="NEWLOGO.svg"
   inkscape:export-filename="/home/jengelh/work/irlogo/100lgnamew.png"
   inkscape:export-xdpi="39.147327"
   inkscape:export-ydpi="39.147327"><metadata
     id="metadata8"><rdf:RDF><cc:Work
         rdf:about=""><dc:format>image/svg+xml</dc:format><dc:type
           rdf:resource="http://purl.org/dc/dcmitype/StillImage" /><dc:title></dc:title></cc:Work></rdf:RDF></metadata><defs
     id="defs6"><clipPath
       clipPathUnits="userSpaceOnUse"
       id="clipPath80"><path
         d="m 0,841.89 595.275,0 L 595.275,0 0,0 0,841.89 Z"
         id="path82"
         inkscape:connector-curvature="0" /></clipPath><clipPath
       clipPathUnits="userSpaceOnUse"
       id="clipPath168"><path
         d="m 266.021,788.346 27.969,0 0,-21.008 -27.969,0 0,21.008 z"
         id="path170"
         inkscape:connector-curvature="0" /></clipPath><clipPath
       clipPathUnits="userSpaceOnUse"
       id="clipPath172"><path
         d="m 293.99,773.61 c -0.196,-0.257 -0.397,-0.509 -0.593,-0.761 -0.084,-0.103 -0.168,-0.211 -0.252,-0.314 -0.108,-0.136 -0.223,-0.267 -0.331,-0.404 -1.446,-1.742 -2.895,-3.218 -4.253,-4.454 -0.087,-0.079 -0.175,-0.159 -0.263,-0.238 -0.036,-0.036 -0.072,-0.066 -0.108,-0.101 -4.92,2.096 -11.437,5.946 -16.966,12.822 -0.512,0.634 -1.011,1.293 -1.503,1.978 -1.483,2.076 -2.701,4.159 -3.7,6.208 0.036,0 0.072,-0.006 0.108,-0.006 0.043,-0.011 0.079,-0.017 0.123,-0.028 4.084,-4.603 13.764,-14.169 27.738,-14.702"
         id="path174"
         inkscape:connector-curvature="0" /></clipPath><linearGradient
       x1="0"
       y1="0"
       x2="1"
       y2="0"
       gradientUnits="userSpaceOnUse"
       gradientTransform="matrix(-8.601696,-12.813824,-12.813824,8.601696,286.66589,790.90021)"
       spreadMethod="pad"
       id="linearGradient180"><stop
         style="stop-opacity:0;stop-color:#ffffff"
         offset="0"
         id="stop182" /><stop
         style="stop-opacity:0;stop-color:#ffffff"
         offset="0.58496236"
         id="stop184" /><stop
         style="stop-opacity:1;stop-color:#ffffff"
         offset="1"
         id="stop186" /></linearGradient><mask
       maskUnits="userSpaceOnUse"
       x="0"
       y="0"
       width="1"
       height="1"
       id="mask188"><g
         id="g190"><g
           id="g192"><g
             id="g194"><g
               id="g196"><path
                 d="m -32768,32767 65535,0 0,-65535 -65535,0 0,65535 z"
                 style="fill:url(#linearGradient180);stroke:none"
                 id="path198"
                 inkscape:connector-curvature="0" /></g></g></g></g></mask><linearGradient
       x1="0"
       y1="0"
       x2="1"
       y2="0"
       gradientUnits="userSpaceOnUse"
       gradientTransform="matrix(-8.601696,-12.813824,-12.813824,8.601696,286.66589,790.90021)"
       spreadMethod="pad"
       id="linearGradient200"><stop
         style="stop-opacity:1;stop-color:#fefefe"
         offset="0"
         id="stop202" /><stop
         style="stop-opacity:1;stop-color:#fefefe"
         offset="0.58496236"
         id="stop204" /><stop
         style="stop-opacity:1;stop-color:#fefefe"
         offset="1"
         id="stop206" /></linearGradient><clipPath
       clipPathUnits="userSpaceOnUse"
       id="clipPath230"><path
         d="m 261.874,810.042 40.12,0 0,-16.444 -40.12,0 0,16.444 z"
         id="path232"
         inkscape:connector-curvature="0" /></clipPath><clipPath
       clipPathUnits="userSpaceOnUse"
       id="clipPath234"><path
         d="m 301.994,808.774 c -1.468,-0.412 -19.73,-0.279 -38.124,-15.176 -1.109,3.305 -1.696,6.351 -1.996,8.882 2.217,1.234 4.494,2.323 6.831,3.262 1.303,0.515 2.612,0.996 3.953,1.423 0.231,0.073 0.468,0.147 0.7,0.215 0.411,0.132 0.825,0.253 1.239,0.368 1.908,0.549 3.851,0.997 5.821,1.349 0.109,0.023 0.224,0.042 0.334,0.06 0.3,0.055 0.6,0.104 0.901,0.148 2.855,0.454 5.721,0.697 8.579,0.731 1.396,0.021 2.8,-0.011 4.195,-0.091 2.514,-0.147 5.018,-0.449 7.514,-0.919 0.013,-0.081 0.033,-0.166 0.053,-0.252"
         id="path236"
         inkscape:connector-curvature="0" /></clipPath><linearGradient
       x1="0"
       y1="0"
       x2="1"
       y2="0"
       gradientUnits="userSpaceOnUse"
       gradientTransform="matrix(-31.742449,-47.28627,-47.28627,31.742449,310.85257,848.7066)"
       spreadMethod="pad"
       id="linearGradient242"><stop
         style="stop-opacity:0;stop-color:#ffffff"
         offset="0"
         id="stop244" /><stop
         style="stop-opacity:0;stop-color:#ffffff"
         offset="0.58496236"
         id="stop246" /><stop
         style="stop-opacity:1;stop-color:#ffffff"
         offset="1"
         id="stop248" /></linearGradient><mask
       maskUnits="userSpaceOnUse"
       x="0"
       y="0"
       width="1"
       height="1"
       id="mask250"><g
         id="g252"><g
           id="g254"><g
             id="g256"><g
               id="g258"><path
                 d="m -32768,32767 65535,0 0,-65535 -65535,0 0,65535 z"
                 style="fill:url(#linearGradient242);stroke:none"
                 id="path260"
                 inkscape:connector-curvature="0" /></g></g></g></g></mask><linearGradient
       x1="0"
       y1="0"
       x2="1"
       y2="0"
       gradientUnits="userSpaceOnUse"
       gradientTransform="matrix(-31.742449,-47.28627,-47.28627,31.742449,310.85257,848.7066)"
       spreadMethod="pad"
       id="linearGradient262"><stop
         style="stop-opacity:1;stop-color:#fefefe"
         offset="0"
         id="stop264" /><stop
         style="stop-opacity:1;stop-color:#fefefe"
         offset="0.58496236"
         id="stop266" /><stop
         style="stop-opacity:1;stop-color:#fefefe"
         offset="1"
         id="stop268" /></linearGradient></defs><sodipodi:namedview
     pagecolor="#adadad"
     bordercolor="#666666"
     borderopacity="1"
     objecttolerance="10"
     gridtolerance="10"
     guidetolerance="10"
     inkscape:pageopacity="0"
     inkscape:pageshadow="2"
     inkscape:window-width="640"
     inkscape:window-height="480"
     id="namedview4"
     showgrid="false"
     units="mm"
     inkscape:zoom="0.6014376"
     inkscape:cx="145.9604"
     inkscape:cy="524.80308"
     inkscape:current-layer="layer1" /><g
     id="g10"
     inkscape:groupmode="layer"
     inkscape:label="blk"
     transform="matrix(1.25,0,0,-1.25,0,325.98425)"
     style="display:none"><path
       d="m 232,607.81149 5.678,0 0,27.757 -5.678,0 0,-27.757 z"
       style="fill:#424446;fill-opacity:1;fill-rule:nonzero;stroke:none"
       id="path74"
       inkscape:connector-curvature="0" /><g
       id="g84"
       transform="translate(249.1582,630.41659)"><path
         d="m 0,0 13.441,0 c 1.381,0 2.558,-0.016 3.498,-0.048 0.891,-0.031 1.628,-0.099 2.188,-0.202 0.614,-0.113 0.9,-0.249 1.014,-0.319 0.125,-0.077 0.204,-0.164 0.258,-0.282 0.092,-0.205 0.151,-0.497 0.169,-0.845 0.026,-0.496 0.039,-1.087 0.039,-1.774 0,-0.743 -0.013,-1.382 -0.039,-1.918 -0.02,-0.408 -0.084,-0.748 -0.19,-1.012 -0.067,-0.168 -0.165,-0.294 -0.308,-0.395 -0.109,-0.078 -0.382,-0.227 -0.974,-0.352 -0.558,-0.118 -1.291,-0.2 -2.179,-0.246 -0.933,-0.048 -2.102,-0.072 -3.476,-0.072 L 0,-7.465 0,0 Z m 25.763,1.079 c -0.287,0.738 -0.747,1.384 -1.366,1.923 -0.602,0.525 -1.398,0.94 -2.433,1.269 -0.951,0.303 -2.103,0.521 -3.521,0.669 -1.359,0.14 -3.041,0.212 -5.002,0.212 l -19.119,0 0,-27.757 5.678,0 0,9.988 12.916,0 c 1.373,0 2.542,-0.024 3.475,-0.072 0.889,-0.046 1.622,-0.128 2.179,-0.246 0.591,-0.124 0.865,-0.274 0.975,-0.352 0.142,-0.101 0.24,-0.227 0.308,-0.395 0.106,-0.263 0.169,-0.604 0.189,-1.012 0.027,-0.536 0.04,-1.176 0.04,-1.918 l 0,-5.993 5.677,0 0,5.993 c 0,0.967 -0.05,1.85 -0.15,2.625 -0.112,0.874 -0.35,1.653 -0.708,2.313 -0.276,0.509 -0.637,0.953 -1.077,1.327 0.517,0.386 0.952,0.858 1.299,1.409 0.433,0.691 0.743,1.521 0.919,2.469 0.161,0.867 0.243,1.875 0.243,2.999 0,0.846 -0.02,1.628 -0.06,2.322 -0.046,0.81 -0.201,1.559 -0.462,2.227"
         style="fill:#424446;fill-opacity:1;fill-rule:nonzero;stroke:none"
         id="path86"
         inkscape:connector-curvature="0" /></g><path
       d="m 280.196,607.81149 5.678,0 0,27.757 -5.678,0 0,-27.757 z"
       style="fill:#424446;fill-opacity:1;fill-rule:nonzero;stroke:none"
       id="path88"
       inkscape:connector-curvature="0" /><g
       id="g90"
       transform="translate(311.8472,612.96339)"><path
         d="m 0,0 -14.493,0 0,17.453 14.493,0 c 1.358,0 2.516,-0.037 3.44,-0.111 0.835,-0.067 1.518,-0.198 2.029,-0.391 0.4,-0.151 0.69,-0.35 0.884,-0.606 C 6.58,16.044 6.755,15.611 6.874,15.058 7.016,14.396 7.1,13.556 7.125,12.564 7.152,11.494 7.166,10.215 7.166,8.727 7.166,7.238 7.152,5.959 7.125,4.889 7.1,3.897 7.016,3.058 6.874,2.395 6.755,1.842 6.58,1.409 6.353,1.108 6.159,0.851 5.87,0.653 5.469,0.502 4.958,0.309 4.273,0.178 3.432,0.111 2.508,0.037 1.353,0 0,0 m 12.377,16.096 c -0.248,1.085 -0.653,2.049 -1.203,2.865 -0.58,0.859 -1.401,1.576 -2.439,2.131 C 7.759,21.615 6.53,22.004 5.082,22.251 3.697,22.486 1.987,22.605 0,22.605 l -20.17,0 0,-27.757 20.17,0 c 1.99,0 3.7,0.12 5.082,0.355 1.447,0.246 2.676,0.635 3.653,1.158 1.038,0.555 1.859,1.272 2.439,2.131 0.55,0.816 0.955,1.78 1.203,2.865 0.23,1.009 0.367,2.157 0.408,3.41 0.039,1.177 0.059,2.509 0.059,3.96 0,1.449 -0.02,2.782 -0.059,3.959 -0.041,1.254 -0.178,2.401 -0.408,3.41"
         style="fill:#424446;fill-opacity:1;fill-rule:nonzero;stroke:none"
         id="path92"
         inkscape:connector-curvature="0" /></g><path
       d="m 329.443,607.81149 5.678,0 0,27.757 -5.678,0 0,-27.757 z"
       style="fill:#424446;fill-opacity:1;fill-rule:nonzero;stroke:none"
       id="path94"
       inkscape:connector-curvature="0" /><g
       id="g96"
       transform="translate(367.2264,621.68999)"><path
         d="m 0,0 c 0,-1.568 -0.011,-2.915 -0.033,-4.041 -0.02,-1.053 -0.103,-1.941 -0.245,-2.64 -0.122,-0.597 -0.302,-1.063 -0.535,-1.387 -0.2,-0.277 -0.491,-0.491 -0.891,-0.653 -0.497,-0.203 -1.171,-0.342 -2.004,-0.413 -0.924,-0.079 -2.076,-0.118 -3.425,-0.118 l -7.393,0 c -1.359,0 -2.514,0.039 -3.432,0.118 -0.829,0.071 -1.505,0.211 -2.01,0.414 -0.399,0.161 -0.687,0.372 -0.881,0.645 -0.227,0.321 -0.403,0.787 -0.522,1.387 -0.138,0.703 -0.222,1.596 -0.247,2.652 -0.027,1.125 -0.041,2.47 -0.041,4.036 l 0,13.878 -5.677,0 0,-13.878 c 0,-1.502 0.016,-2.872 0.05,-4.108 0.034,-1.3 0.168,-2.491 0.398,-3.538 0.245,-1.118 0.645,-2.114 1.19,-2.96 0.577,-0.895 1.393,-1.642 2.426,-2.217 0.973,-0.543 2.203,-0.95 3.654,-1.208 1.388,-0.248 3.1,-0.373 5.092,-0.373 l 7.393,0 c 1.992,0 3.704,0.125 5.093,0.373 1.45,0.258 2.68,0.665 3.653,1.208 1.035,0.577 1.85,1.325 2.422,2.223 0.537,0.845 0.934,1.839 1.178,2.954 0.229,1.044 0.365,2.232 0.406,3.532 0.039,1.225 0.059,2.609 0.059,4.114 l 0,13.878 -5.696,0 L 0,0 Z"
         style="fill:#424446;fill-opacity:1;fill-rule:nonzero;stroke:none"
         id="path98"
         inkscape:connector-curvature="0" /></g><g
       id="g100"
       transform="translate(412.7307,635.56849)"><path
         d="M 0,0 -14.039,-21.067 -28.063,0 l -7.012,0 0,-27.757 5.678,0 0,20.178 13.27,-20.178 4.549,0 13.039,19.832 0,-19.832 5.678,0 L 7.139,0 0,0 Z"
         style="fill:#424446;fill-opacity:1;fill-rule:nonzero;stroke:none"
         id="path102"
         inkscape:connector-curvature="0" /></g><path
       inkscape:connector-curvature="0"
       id="path134"
       style="fill:#5299d9;fill-opacity:1;fill-rule:nonzero;stroke:none"
       d="m 163.075,619.29013 c -0.077,0.147 -0.139,0.304 -0.189,0.467 -0.048,0.147 -0.084,0.295 -0.109,0.451 -0.072,0.439 -0.054,0.874 0.045,1.282 0.045,0.197 0.11,0.38 0.199,0.56 0.423,0.935 1.297,1.647 2.394,1.826 1.305,0.213 2.559,-0.388 3.218,-1.443 0.118,-0.176 0.215,-0.373 0.29,-0.575 0.073,-0.195 0.131,-0.405 0.166,-0.619 0.122,-0.745 -0.022,-1.462 -0.362,-2.069 -0.095,-0.176 -0.211,-0.337 -0.335,-0.488 -0.163,-0.198 -0.347,-0.377 -0.548,-0.528 l 0.852,-2.31 0.83,-2.253 -4.735,-0.014 0.074,1.796 0.068,2.305 c -0.803,0.272 -1.477,0.838 -1.857,1.606 l -0.001,0.006 z m 21.835,10.066 c -0.013,0.223 -0.031,0.446 -0.049,0.662 -0.122,1.617 -0.33,3.112 -0.574,4.46 -0.04,0.207 -0.074,0.415 -0.113,0.616 -0.02,0.086 -0.034,0.172 -0.054,0.258 -0.02,0.086 -0.04,0.171 -0.053,0.252 -2.496,0.47 -5,0.772 -7.514,0.919 -1.395,0.08 -2.799,0.112 -4.195,0.091 -2.858,-0.034 -5.724,-0.277 -8.579,-0.732 -0.301,-0.043 -0.601,-0.092 -0.901,-0.147 -0.109,-0.018 -0.225,-0.037 -0.334,-0.06 -1.97,-0.352 -3.913,-0.8 -5.821,-1.349 -0.414,-0.115 -0.827,-0.236 -1.239,-0.368 -0.232,-0.068 -0.469,-0.142 -0.7,-0.215 -1.341,-0.427 -2.65,-0.908 -3.953,-1.423 -2.337,-0.939 -4.614,-2.029 -6.831,-3.262 0.3,-2.531 0.887,-5.577 1.996,-8.882 0.567,-1.692 1.268,-3.44 2.141,-5.23 0.001,-0.006 0.009,-0.016 0.01,-0.022 0.999,-2.049 2.217,-4.132 3.7,-6.208 0.492,-0.685 0.991,-1.344 1.503,-1.978 5.529,-6.876 12.046,-10.727 16.966,-12.822 0.036,0.035 0.072,0.065 0.108,0.101 0.088,0.079 0.176,0.159 0.263,0.238 1.358,1.236 2.807,2.712 4.253,4.454 0.108,0.137 0.223,0.268 0.332,0.404 0.084,0.103 0.167,0.211 0.251,0.314 0.196,0.251 0.398,0.504 0.593,0.761 1.609,2.125 3.166,4.573 4.528,7.375 0.098,0.2 0.19,0.398 0.288,0.598 0.715,1.54 1.37,3.189 1.944,4.943 0.062,0.2 0.125,0.394 0.192,0.6 0.012,0.038 0.023,0.075 0.035,0.113 l -0.001,0.006 c 0.526,1.716 0.921,3.399 1.212,5.03 0.015,0.091 0.034,0.189 0.049,0.281 0.041,0.22 0.076,0.439 0.105,0.663 0.27,1.651 0.418,3.247 0.489,4.776 0.01,0.227 0.02,0.454 0.019,0.679 0.05,1.437 0.016,2.807 -0.066,4.104" /><g
       id="g136"
       transform="translate(172.4492,648.72423)"><path
         d="m 0,0 c 1.639,0.643 3.354,1.149 5.136,1.51 9.443,1.912 18.775,-0.703 25.725,-6.366 l -0.145,-0.07 -4.895,-2.358 C 20.233,-3.542 13.22,-1.924 6.118,-3.36 5.484,-3.487 4.86,-3.635 4.247,-3.808 2.988,-2.323 1.556,-1.042 0,0"
         style="fill:#424446;fill-opacity:1;fill-rule:nonzero;stroke:none"
         id="path138"
         inkscape:connector-curvature="0" /></g><g
       id="g140"
       transform="translate(206.8418,640.24883)"><path
         d="m 0,0 c -0.146,-0.1 -0.299,-0.202 -0.449,-0.303 -0.435,-0.283 -0.87,-0.594 -1.321,-0.88 -0.457,-0.277 -0.918,-0.569 -1.389,-0.858 -0.308,-0.19 -0.612,-0.383 -0.937,-0.569 -0.652,-0.382 -1.328,-0.758 -2.011,-1.156 -0.514,-0.29 -1.037,-0.541 -1.565,-0.83 -0.529,-0.259 -1.061,-0.562 -1.611,-0.815 -2.173,-1.083 -4.491,-2.063 -6.896,-2.981 -1.292,-0.47 -2.61,-0.925 -3.944,-1.345 -0.179,1.522 -0.415,2.909 -0.672,4.136 l -0.148,0.697 c 1.173,0.208 2.34,0.446 3.491,0.7 2.364,0.563 4.67,1.192 6.875,1.934 0.556,0.174 1.088,0.394 1.631,0.572 0.532,0.2 1.074,0.382 1.594,0.593 0.392,0.164 0.791,0.325 1.174,0.481 0.636,0.254 1.253,0.507 1.855,0.785 0.489,0.223 0.968,0.441 1.446,0.651 0.472,0.224 0.922,0.457 1.387,0.682 0.021,0.011 0.04,0.02 0.071,0.035 0.285,-0.282 0.558,-0.57 0.827,-0.855 C -0.39,0.455 -0.191,0.235 0,0"
         style="fill:#424446;fill-opacity:1;fill-rule:nonzero;stroke:none"
         id="path142"
         inkscape:connector-curvature="0" /></g><g
       id="g144"
       transform="translate(213.7908,625.19273)"><path
         d="m 0,0 c -0.453,-0.237 -0.913,-0.495 -1.358,-0.74 -0.443,-0.239 -0.874,-0.465 -1.323,-0.668 l -2.747,-1.303 -5.503,-2.6 -1.374,-0.644 c -0.443,-0.212 -0.933,-0.385 -1.394,-0.573 -0.937,-0.369 -1.857,-0.775 -2.816,-1.111 l -2.869,-1.007 c -0.948,-0.338 -1.929,-0.581 -2.91,-0.841 l -2.942,-0.78 c -0.939,-0.236 -1.84,-0.517 -2.786,-0.681 -0.217,-0.91 -0.466,-1.831 -0.752,-2.765 -0.351,-1.142 -0.735,-2.24 -1.149,-3.3 0.067,0.172 11.951,-1.803 23.892,8.455 0.327,-2.109 -3.292,-7.209 -4.619,-8.84 -6.02,-7.405 -15.067,-10.287 -24.363,-9.17 -1.447,-2.083 -2.95,-3.89 -4.4,-5.427 0.081,-0.03 0.16,-0.043 0.238,-0.074 L -38,-32.388 c 0.823,-0.195 1.668,-0.303 2.496,-0.447 0.827,-0.18 1.669,-0.209 2.514,-0.26 0.848,-0.041 1.682,-0.147 2.537,-0.071 l 2.556,0.116 2.446,0.363 0.614,0.09 c 0.118,0.026 0.166,0.017 0.342,0.063 l 0.303,0.073 1.229,0.31 c 0.408,0.106 0.823,0.188 1.226,0.323 l 1.195,0.415 1.188,0.416 1.155,0.515 1.152,0.514 c 0.374,0.197 0.739,0.403 1.111,0.606 l 1.107,0.603 c 0.365,0.206 0.705,0.465 1.064,0.689 0.703,0.457 1.408,0.918 2.047,1.464 0.666,0.518 1.337,1.026 1.937,1.626 0.624,0.574 1.258,1.146 1.788,1.767 l 0.839,0.908 0.205,0.23 0.223,0.259 c 0.13,0.161 0.262,0.329 0.388,0.495 0.495,0.669 1.041,1.313 1.48,2.026 l 0.692,1.05 c 0.221,0.356 0.425,0.734 0.631,1.097 0.443,0.73 0.795,1.479 1.149,2.221 0.369,0.715 0.693,1.576 0.966,2.328 l 0.429,1.173 c 0.125,0.396 0.23,0.809 0.353,1.217 l 0.334,1.211 0.25,1.217 c 0.183,0.791 0.29,1.659 0.401,2.485 0.115,0.839 0.129,1.629 0.201,2.491 0.029,0.819 -0.008,1.677 -0.02,2.499 L 0.526,0.279 0,0 Z"
         style="fill:#424446;fill-opacity:1;fill-rule:nonzero;stroke:none"
         id="path146"
         inkscape:connector-curvature="0" /></g><g
       id="g148"
       transform="translate(204.2099,625.03943)"><path
         d="m 0,0 c -0.948,-0.381 -1.919,-0.702 -2.874,-1.081 -1.144,-0.456 -2.327,-0.782 -3.482,-1.177 -1.16,-0.406 -2.36,-0.708 -3.538,-1.02 l -1.769,-0.482 -1.797,-0.39 c -1.191,-0.274 -2.412,-0.553 -3.617,-0.72 l -0.356,-0.058 c 0.213,1.971 0.284,3.851 0.255,5.617 4.654,1.308 9.362,3.041 13.825,5.312 C -3.073,3.701 -1.92,1.52 0,0"
         style="fill:#5299d9;fill-opacity:1;fill-rule:nonzero;stroke:none"
         id="path150"
         inkscape:connector-curvature="0" /></g><g
       id="g152"
       transform="translate(214.5847,629.01033)"><path
         d="m 0,0 c -1.437,-2.15 -4.078,-3.015 -6.421,-2.273 -0.498,0.151 -0.988,0.376 -1.442,0.682 -1.876,1.251 -2.77,3.403 -2.488,5.488 0.11,0.825 0.402,1.638 0.896,2.375 1.728,2.61 5.254,3.319 7.864,1.591 C 1.016,6.129 1.727,2.61 0,0"
         style="fill:#5299d9;fill-opacity:1;fill-rule:nonzero;stroke:none"
         id="path154"
         inkscape:connector-curvature="0" /></g><g
       id="g156"
       transform="translate(176.2699,638.25553)"><path
         d="m 0,0 c -1.395,0.08 -2.799,0.112 -4.195,0.091 -0.553,1.422 -1.312,2.697 -2.215,3.759 -0.193,0.236 -0.395,0.457 -0.608,0.672 -1.115,1.128 -2.406,1.955 -3.791,2.41 -0.326,0.107 -0.654,0.19 -0.99,0.253 -0.84,0.166 -1.715,0.189 -2.587,0.046 -4.204,-0.687 -7.155,-4.91 -7.383,-10.011 -1.341,-0.427 -2.65,-0.907 -3.953,-1.423 -0.309,7.622 4.174,14.26 10.7,15.327 2.535,0.414 5.051,-0.07 7.294,-1.24 C -7.391,9.708 -7.064,9.519 -6.745,9.31 -5.549,8.557 -4.443,7.599 -3.471,6.471 -3.243,6.206 -3.02,5.928 -2.807,5.642 -1.582,4.022 -0.612,2.112 0,0"
         style="fill:#424446;fill-opacity:1;fill-rule:nonzero;stroke:none"
         id="path158"
         inkscape:connector-curvature="0" /></g><g
       id="g160"
       transform="translate(165.4607,645.18763)"><path
         d="M 0,0 C 1.284,0.886 2.636,1.682 4.064,2.378 5.261,1.624 6.366,0.667 7.339,-0.461 7.566,-0.726 7.789,-1.004 8.002,-1.29 6.745,-1.797 5.538,-2.398 4.399,-3.082 4.206,-2.846 4.004,-2.625 3.791,-2.41 2.676,-1.282 1.385,-0.456 0,0"
         style="fill:#424446;fill-opacity:1;fill-rule:nonzero;stroke:none"
         id="path162"
         inkscape:connector-curvature="0" /></g><g
       id="g164"
       transform="translate(-117.8739,-173.42187)"><g
         id="g166" /><g
         id="g208"><g
           clip-path="url(#clipPath168)"
           id="g210"
           style="opacity:0.21000701"><g
             id="g212"><g
               clip-path="url(#clipPath172)"
               id="g214"><g
                 id="g216"><g
                   id="g218" /><g
                   mask="url(#mask188)"
                   id="g220"><g
                     id="g222"><path
                       d="m 293.99,773.61 c -0.196,-0.257 -0.397,-0.509 -0.593,-0.761 -0.084,-0.103 -0.168,-0.211 -0.252,-0.314 -0.108,-0.136 -0.223,-0.267 -0.331,-0.404 -1.446,-1.742 -2.895,-3.218 -4.253,-4.454 -0.087,-0.079 -0.175,-0.159 -0.263,-0.238 -0.036,-0.036 -0.072,-0.066 -0.108,-0.101 -4.92,2.096 -11.437,5.946 -16.966,12.822 -0.512,0.634 -1.011,1.293 -1.503,1.978 -1.483,2.076 -2.701,4.159 -3.7,6.208 0.036,0 0.072,-0.006 0.108,-0.006 0.043,-0.011 0.079,-0.017 0.123,-0.028 4.084,-4.603 13.764,-14.169 27.738,-14.702"
                       style="fill:url(#linearGradient200);stroke:none"
                       id="path224"
                       inkscape:connector-curvature="0" /></g></g></g></g></g></g></g></g><g
       id="g226"
       transform="translate(-117.8739,-173.42187)"><g
         id="g228" /><g
         id="g270"><g
           clip-path="url(#clipPath230)"
           id="g272"
           style="opacity:0.25"><g
             id="g274"><g
               clip-path="url(#clipPath234)"
               id="g276"><g
                 id="g278"><g
                   id="g280" /><g
                   mask="url(#mask250)"
                   id="g282"><g
                     id="g284"><path
                       d="m 301.994,808.774 c -1.468,-0.412 -19.73,-0.279 -38.124,-15.176 -1.109,3.305 -1.696,6.351 -1.996,8.882 2.217,1.234 4.494,2.323 6.831,3.262 1.303,0.515 2.612,0.996 3.953,1.423 0.231,0.073 0.468,0.147 0.7,0.215 0.411,0.132 0.825,0.253 1.239,0.368 1.908,0.549 3.851,0.997 5.821,1.349 0.109,0.023 0.224,0.042 0.334,0.06 0.3,0.055 0.6,0.104 0.901,0.148 2.855,0.454 5.721,0.697 8.579,0.731 1.396,0.021 2.8,-0.011 4.195,-0.091 2.514,-0.147 5.018,-0.449 7.514,-0.919 0.013,-0.081 0.033,-0.166 0.053,-0.252"
                       style="fill:url(#linearGradient262);stroke:none"
                       id="path286"
                       inkscape:connector-curvature="0" /></g></g></g></g></g></g></g></g></g><g
     inkscape:groupmode="layer"
     id="layer1"
     inkscape:label="white"
     style="display:inline"
     transform="translate(0,-726.37795)"><g
       id="g4268"
       transform="matrix(4.0232255,0,0,4.0232255,-1157.247,-219.34276)"><path
         d="m 290,292.59785 7.0975,0 0,-34.69625 -7.0975,0 0,34.69625 z"
         style="fill:#ffffff;fill-opacity:1;fill-rule:nonzero;stroke:none"
         id="path4224"
         inkscape:connector-curvature="0" /><g
         id="g4226"
         transform="matrix(1.25,0,0,-1.25,311.44775,264.34147)"
         style="fill:#ffffff;fill-opacity:1"><path
           d="m 0,0 13.441,0 c 1.381,0 2.558,-0.016 3.498,-0.048 0.891,-0.031 1.628,-0.099 2.188,-0.202 0.614,-0.113 0.9,-0.249 1.014,-0.319 0.125,-0.077 0.204,-0.164 0.258,-0.282 0.092,-0.205 0.151,-0.497 0.169,-0.845 0.026,-0.496 0.039,-1.087 0.039,-1.774 0,-0.743 -0.013,-1.382 -0.039,-1.918 -0.02,-0.408 -0.084,-0.748 -0.19,-1.012 -0.067,-0.168 -0.165,-0.294 -0.308,-0.395 -0.109,-0.078 -0.382,-0.227 -0.974,-0.352 -0.558,-0.118 -1.291,-0.2 -2.179,-0.246 -0.933,-0.048 -2.102,-0.072 -3.476,-0.072 L 0,-7.465 0,0 Z m 25.763,1.079 c -0.287,0.738 -0.747,1.384 -1.366,1.923 -0.602,0.525 -1.398,0.94 -2.433,1.269 -0.951,0.303 -2.103,0.521 -3.521,0.669 -1.359,0.14 -3.041,0.212 -5.002,0.212 l -19.119,0 0,-27.757 5.678,0 0,9.988 12.916,0 c 1.373,0 2.542,-0.024 3.475,-0.072 0.889,-0.046 1.622,-0.128 2.179,-0.246 0.591,-0.124 0.865,-0.274 0.975,-0.352 0.142,-0.101 0.24,-0.227 0.308,-0.395 0.106,-0.263 0.169,-0.604 0.189,-1.012 0.027,-0.536 0.04,-1.176 0.04,-1.918 l 0,-5.993 5.677,0 0,5.993 c 0,0.967 -0.05,1.85 -0.15,2.625 -0.112,0.874 -0.35,1.653 -0.708,2.313 -0.276,0.509 -0.637,0.953 -1.077,1.327 0.517,0.386 0.952,0.858 1.299,1.409 0.433,0.691 0.743,1.521 0.919,2.469 0.161,0.867 0.243,1.875 0.243,2.999 0,0.846 -0.02,1.628 -0.06,2.322 -0.046,0.81 -0.201,1.559 -0.462,2.227"
           style="fill:#ffffff;fill-opacity:1;fill-rule:nonzero;stroke:none"
           id="path4228"
           inkscape:connector-curvature="0" /></g><path
         d="m 350.245,292.59785 7.0975,0 0,-34.69625 -7.0975,0 0,34.69625 z"
         style="fill:#ffffff;fill-opacity:1;fill-rule:nonzero;stroke:none"
         id="path4230"
         inkscape:connector-curvature="0" /><g
         id="g4232"
         transform="matrix(1.25,0,0,-1.25,389.809,286.15798)"
         style="fill:#ffffff;fill-opacity:1"><path
           d="m 0,0 -14.493,0 0,17.453 14.493,0 c 1.358,0 2.516,-0.037 3.44,-0.111 0.835,-0.067 1.518,-0.198 2.029,-0.391 0.4,-0.151 0.69,-0.35 0.884,-0.606 C 6.58,16.044 6.755,15.611 6.874,15.058 7.016,14.396 7.1,13.556 7.125,12.564 7.152,11.494 7.166,10.215 7.166,8.727 7.166,7.238 7.152,5.959 7.125,4.889 7.1,3.897 7.016,3.058 6.874,2.395 6.755,1.842 6.58,1.409 6.353,1.108 6.159,0.851 5.87,0.653 5.469,0.502 4.958,0.309 4.273,0.178 3.432,0.111 2.508,0.037 1.353,0 0,0 m 12.377,16.096 c -0.248,1.085 -0.653,2.049 -1.203,2.865 -0.58,0.859 -1.401,1.576 -2.439,2.131 C 7.759,21.615 6.53,22.004 5.082,22.251 3.697,22.486 1.987,22.605 0,22.605 l -20.17,0 0,-27.757 20.17,0 c 1.99,0 3.7,0.12 5.082,0.355 1.447,0.246 2.676,0.635 3.653,1.158 1.038,0.555 1.859,1.272 2.439,2.131 0.55,0.816 0.955,1.78 1.203,2.865 0.23,1.009 0.367,2.157 0.408,3.41 0.039,1.177 0.059,2.509 0.059,3.96 0,1.449 -0.02,2.782 -0.059,3.959 -0.041,1.254 -0.178,2.401 -0.408,3.41"
           style="fill:#ffffff;fill-opacity:1;fill-rule:nonzero;stroke:none"
           id="path4234"
           inkscape:connector-curvature="0" /></g><path
         d="m 411.80375,292.59785 7.0975,0 0,-34.69625 -7.0975,0 0,34.69625 z"
         style="fill:#ffffff;fill-opacity:1;fill-rule:nonzero;stroke:none"
         id="path4236"
         inkscape:connector-curvature="0" /><g
         id="g4238"
         transform="matrix(1.25,0,0,-1.25,459.033,275.24973)"
         style="fill:#ffffff;fill-opacity:1"><path
           d="m 0,0 c 0,-1.568 -0.011,-2.915 -0.033,-4.041 -0.02,-1.053 -0.103,-1.941 -0.245,-2.64 -0.122,-0.597 -0.302,-1.063 -0.535,-1.387 -0.2,-0.277 -0.491,-0.491 -0.891,-0.653 -0.497,-0.203 -1.171,-0.342 -2.004,-0.413 -0.924,-0.079 -2.076,-0.118 -3.425,-0.118 l -7.393,0 c -1.359,0 -2.514,0.039 -3.432,0.118 -0.829,0.071 -1.505,0.211 -2.01,0.414 -0.399,0.161 -0.687,0.372 -0.881,0.645 -0.227,0.321 -0.403,0.787 -0.522,1.387 -0.138,0.703 -0.222,1.596 -0.247,2.652 -0.027,1.125 -0.041,2.47 -0.041,4.036 l 0,13.878 -5.677,0 0,-13.878 c 0,-1.502 0.016,-2.872 0.05,-4.108 0.034,-1.3 0.168,-2.491 0.398,-3.538 0.245,-1.118 0.645,-2.114 1.19,-2.96 0.577,-0.895 1.393,-1.642 2.426,-2.217 0.973,-0.543 2.203,-0.95 3.654,-1.208 1.388,-0.248 3.1,-0.373 5.092,-0.373 l 7.393,0 c 1.992,0 3.704,0.125 5.093,0.373 1.45,0.258 2.68,0.665 3.653,1.208 1.035,0.577 1.85,1.325 2.422,2.223 0.537,0.845 0.934,1.839 1.178,2.954 0.229,1.044 0.365,2.232 0.406,3.532 0.039,1.225 0.059,2.609 0.059,4.114 l 0,13.878 -5.696,0 L 0,0 Z"
           style="fill:#ffffff;fill-opacity:1;fill-rule:nonzero;stroke:none"
           id="path4240"
           inkscape:connector-curvature="0" /></g><g
         id="g4242"
         transform="matrix(1.25,0,0,-1.25,515.91337,257.9016)"
         style="fill:#ffffff;fill-opacity:1"><path
           d="M 0,0 -14.039,-21.067 -28.063,0 l -7.012,0 0,-27.757 5.678,0 0,20.178 13.27,-20.178 4.549,0 13.039,19.832 0,-19.832 5.678,0 L 7.139,0 0,0 Z"
           style="fill:#ffffff;fill-opacity:1;fill-rule:nonzero;stroke:none"
           id="path4244"
           inkscape:connector-curvature="0" /></g></g></g></svg>