/* XPM */
static char *product_logo_32[] = {
/* columns rows colors chars-per-pixel */
"32 32 64 1 ",
"  c None",
". c #414243",
"X c #414344",
"o c #424344",
"O c #424345",
"+ c #424446",
"@ c #5199D9",
"# c #5299D9",
"$ c #5399D9",
"% c #539AD9",
"& c #5299DA",
"* c #529ADB",
"= c #549AD9",
"- c #549ADA",
"; c #559ADA",
": c #559BDA",
"> c #569BDA",
", c #579CDA",
"< c #529ADC",
"1 c #539BDC",
"2 c #589DDA",
"3 c #599DDA",
"4 c #599DDB",
"5 c #5A9EDB",
"6 c #5C9FDB",
"7 c #5EA0DC",
"8 c #5FA1DC",
"9 c #61A0D9",
"0 c #63A1D8",
"q c #60A1DC",
"w c #61A2DC",
"e c #62A2DD",
"r c #63A3DD",
"t c #64A4DD",
"y c #66A5DD",
"u c #67A5DE",
"i c #69A7DE",
"p c #6AA7DE",
"a c #6BA8DE",
"s c #6CA8DF",
"d c #6EA9DF",
"f c #6EAADF",
"g c #6FAAE0",
"h c #70AAE0",
"j c #70ABE0",
"k c #71ABE0",
"l c #73ACE0",
"z c #73ADE0",
"x c #75ADE0",
"c c #74ADE1",
"v c #75ADE1",
"b c #75AEE0",
"n c #75AEE1",
"m c #76AEE1",
"M c #77AFE1",
"N c #77AFE2",
"B c #79B0E1",
"V c #7BB1E2",
"C c #7BB2E2",
"Z c #7CB2E3",
"A c #7DB3E3",
"S c #7EB3E3",
"D c #7CB4E5",
"F c #7DB4E5",
/* pixels */
"                                ",
"                                ",
"                                ",
"                ++++            ",
"       ++++  ++++++++++         ",
"     ++++++++ +++ +++++++       ",
"    +++    ++         ++++      ",
"    ++      ++                  ",
"    +        .          ++X     ",
"   +X       t00      ++++  <##  ",
"      Nlkhfptw3,=1 X+++    #### ",
"   DAZCCNsw3=####1 X+      #### ",
" ZAAAACf7=########      #  #### ",
" ZAZZk7###########   #####  #<  ",
" AANt=############ #######      ",
" Zj3#####  ####### #####    +++ ",
" w=######  #######        +++++ ",
"  #######  #######      +++++++ ",
"  ######## #######   +++++++++  ",
"   3#############  +++++++  ++  ",
"   g6###########< X+++++   +++  ",
"    h7=#########< +++     +++   ",
"     Nt3########         ++++   ",
"      Nkw=######        ++++    ",
"       NNjr3==#        ++++     ",
"        kNNjg0      ++++++      ",
"         NNNk  ++++++++++       ",
"           N  +++++++++         ",
"               ++++             ",
"                                ",
"                                ",
"                                "
};
