<svg width="568" height="568" xmlns="http://www.w3.org/2000/svg" xmlns:xlink="http://www.w3.org/1999/xlink"><defs><path id="a" d="M0 .65h315.723V238H0z"/></defs><g fill="none" fill-rule="evenodd"><g transform="translate(126 226)"><mask id="b" fill="#fff"><use xlink:href="#a"/></mask><path d="M31.57.65C14.05.65.164 14.734.164 32.295l-.165 174.058C-.002 223.915 14.051 238 31.571 238h252.58c17.52 0 31.572-14.086 31.572-31.647V32.296c0-17.561-14.052-31.647-31.572-31.647H31.571z" fill="#BDC1C6" mask="url(#b)"/></g><path d="M252 340c0-17.598 14.393-32 32-32s32 14.402 32 32-14.393 32-32 32-32-14.402-32-32z" fill="#FFF"/><path d="M356 230v-51.299C356 138.55 323.765 106 284 106s-72 32.55-72 72.701v50.376" stroke="#BDC1C6" stroke-width="30"/></g></svg>
