STARTFONT 2.1
FONT -FontForge-HangingS-Regular-R-Normal--16-150-75-75-P-82-ISO10646-1
SIZE 15 75 75
FONTBOUNDINGBOX 50 15 -10 0
COMMENT "Generated by fontforge, http://fontforge.sourceforge.net"
COMMENT "Copyright (c) 2015, Google"
STARTPROPERTIES 31
FOUNDRY "FontForge"
FAMILY_NAME "HangingS"
WEIGHT_NAME "Regular"
SLANT "R"
SETWIDTH_NAME "Normal"
ADD_STYLE_NAME ""
PIXEL_SIZE 16
POINT_SIZE 150
RESOLUTION_X 75
RESOLUTION_Y 75
SPACING "P"
AVERAGE_WIDTH 82
CHARSET_REGISTRY "ISO10646"
CHARSET_ENCODING "1"
FONTNAME_REGISTRY ""
CHARSET_COLLECTIONS "ISO10646-1"
FONT_NAME "HangingS"
FACE_NAME "HangingS"
COPYRIGHT "Copyright (c) 2015, Google"
FONT_VERSION "001.000"
FONT_ASCENT 13
FONT_DESCENT 3
UNDERLINE_POSITION -2
UNDERLINE_THICKNESS 1
RAW_ASCENT 799
RAW_DESCENT 200
RELATIVE_WEIGHT 40
RELATIVE_SETWIDTH 50
FIGURE_WIDTH -1
AVG_LOWERCASE_WIDTH 56
AVG_UPPERCASE_WIDTH 160
ENDPROPERTIES
CHARS 4
STARTCHAR S
ENCODING 83
SWIDTH 1000 0
DWIDTH 16 0
BBX 50 15 -10 0
BITMAP
0000000FFFF800
000007F0000E00
0000F800000380
000380000000C0
000E00000000C0
001800000000C0
00180000000080
00100000000000
00180000000000
C00CF800000000
C0070F00000000
60000080000000
38000080000000
07C00080000000
003FFF00000000
ENDCHAR
STARTCHAR a
ENCODING 97
SWIDTH 443 0
DWIDTH 7 0
BBX 5 6 1 0
BITMAP
30
C8
18
78
88
F8
ENDCHAR
STARTCHAR i
ENCODING 105
SWIDTH 219 0
DWIDTH 4 0
BBX 1 6 1 0
BITMAP
80
00
80
80
80
80
ENDCHAR
STARTCHAR k
ENCODING 107
SWIDTH 375 0
DWIDTH 6 0
BBX 4 9 1 0
BITMAP
80
80
80
A0
C0
C0
C0
A0
90
ENDCHAR
ENDFONT
