<svg xmlns="http://www.w3.org/2000/svg" width="116" height="121" viewBox="0 0 116 121">
  <path fill-rule="evenodd" d="M545.5248,197.126847 C530.692093,189.146261 521.127888,173.460342 520.809739,152.718683 C519.376669,153.444809 517.745766,153.566915 515.866947,152.881845 C510.489999,150.92126 511.698144,144.372917 513.67021,138.53415 C515.303405,133.698693 520.880557,130.169032 523.611646,129.430569 C529.968582,105.072309 544.883427,86 570,86 C595.415731,86 610.433193,104.285219 616.611005,129.495025 C619.411831,130.35674 624.739811,133.826643 626.32979,138.53415 C628.301856,144.372917 629.510001,150.92126 624.133053,152.881845 C622.254546,153.566801 620.623871,153.44485 619.190973,152.719044 C618.901111,173.591789 609.338868,189.219818 594.513009,197.156965 C595.406844,197.876274 595.913623,198.808353 595.913623,200 C595.913623,203.865993 597.794721,207 584,207 C573.933429,207 572.214571,204.869914 572.02076,202.552754 C571.351571,202.131317 570.677924,201.5 570,201.5 C569.320551,201.5 568.645422,202.181984 567.974796,202.602976 C567.760141,204.900599 565.9938,207 556,207 C542.205279,207 544.086377,203.865993 544.086377,200 C544.086377,198.791652 544.607461,197.850199 545.5248,197.126847 Z M570,193 C598.664063,193 609,172.64984 609,145.600223 C609,123.155646 599.599515,102.543967 584,99.1029306 C579,98 575.5,110 570,110 C564.5,110 560.5,98 556,99.1029306 C540.334343,102.942516 531,124.341862 531,145.600223 C531,171.125011 541.335938,193 570,193 Z M552,133 C548.686292,133 546,130.313708 546,127 C546,123.686292 548.686292,121 552,121 C555.313708,121 558,123.686292 558,127 C558,130.313708 555.313708,133 552,133 Z M588,133 C584.686292,133 582,130.313708 582,127 C582,123.686292 584.686292,121 588,121 C591.313708,121 594,123.686292 594,127 C594,130.313708 591.313708,133 588,133 Z M571.085639,136.240257 L579.320334,139.853476 C580.74661,140.479298 581.389457,142.129225 580.756172,143.538692 C580.631496,143.816176 580.461861,144.07171 580.253946,144.295231 L572.066398,153.09735 C571.010305,154.232714 569.222801,154.307067 568.073896,153.263421 C568.013538,153.208592 567.955623,153.151194 567.900316,153.091389 L559.739837,144.267218 C558.687076,143.128836 558.767491,141.362622 559.91945,140.322268 C560.14194,140.121333 560.395529,139.956871 560.670602,139.835116 L568.783935,136.243949 C569.515872,135.919975 570.352642,135.918633 571.085639,136.240257 Z" transform="translate(-512 -86)"/>
</svg>
